<svg width="47" height="32" viewBox="0 0 47 32" fill="none" xmlns="http://www.w3.org/2000/svg">
    <path fill-rule="evenodd" clip-rule="evenodd" d="M8.74333 7.75112C7.75903 7.36725 6.67713 7.17241 5.52605 7.17241H0.554011C0.248875 7.17241 0 7.41132 0 7.70705V24.2927C0 24.5873 0.248875 24.8276 0.554011 24.8276H5.52605C6.67713 24.8276 7.75903 24.6325 8.74333 24.2486C9.88781 23.8032 10.8603 23.1134 11.6319 22.1982C13.387 20.1201 13.6488 17.4882 13.6502 16.1052C13.6502 14.9284 13.4533 11.9578 11.6319 9.80152C10.8603 8.88663 9.88781 8.19678 8.74333 7.75112ZM5.52605 23.1724H1.70624V8.82759H5.52605C6.93002 8.82759 8.89719 9.16988 10.3089 10.8411C11.8263 12.6374 11.9437 15.3247 11.9437 16.1052C11.9437 17.2692 11.7313 19.4746 10.3089 21.1586C8.89719 22.8301 6.93002 23.1724 5.52605 23.1724ZM35.8319 16.3252V23.1924H40.6063C45.3097 23.1924 45.3097 20.465 45.3097 19.5682C45.3097 17.7102 43.6475 16.3252 41.27 16.3252H35.8319ZM35.8319 8.81103H39.8686C41.2945 8.81103 42.3601 9.04524 43.034 9.50758C43.476 9.80965 44.0607 10.381 44.0607 11.8505C44.0607 14.4825 41.925 14.6866 41.27 14.6866H35.8319V8.81103ZM44.3385 15.3669L44.2469 15.3219L44.3243 15.2566C44.9752 14.7004 45.7516 13.6568 45.7516 11.8505C45.7516 10.1992 45.1652 8.96027 44.0092 8.16855C43.0298 7.49821 41.6756 7.17241 39.8686 7.17241H34.6747C34.3721 7.17241 34.127 7.41048 34.1256 7.70345V24.3C34.1256 24.593 34.371 24.8276 34.6733 24.8276H40.6063C42.475 24.8276 43.9716 24.444 45.0554 23.6785C45.6842 23.2349 46.1688 22.6664 46.4952 21.9886C46.8299 21.2931 47 20.4802 47 19.5682C47 18.18 46.3909 16.8452 45.2852 15.9658C45.0011 15.7401 44.682 15.5385 44.3385 15.3669ZM30.1443 0V24.3296C30.1443 24.5476 30.0007 24.7361 29.7877 24.808C29.6156 24.866 29.4305 24.7567 29.3324 24.6278L18.2003 11.0135V32H16.4941V7.7147C16.4941 7.49677 16.6374 7.30505 16.8504 7.23608C16.9033 7.22008 16.959 7.21126 17.013 7.21126C17.1786 7.21126 17.3335 7.28739 17.4328 7.41788L28.438 20.9655V0H30.1443Z" fill="#008484"/>
</svg>
